<?xml version="1.0" standalone="no"?>
<!DOCTYPE svg PUBLIC "-//W3C//DTD SVG 20010904//EN"
 "http://www.w3.org/TR/2001/REC-SVG-20010904/DTD/svg10.dtd">
<svg version="1.0" xmlns="http://www.w3.org/2000/svg"
 width="305.000000pt" height="305.000000pt" viewBox="0 0 305.000000 305.000000"
 preserveAspectRatio="xMidYMid meet">
<metadata>
Created by potrace 1.11, written by Peter Selinger 2001-2013
</metadata>
<g transform="translate(0.000000,305.000000) scale(0.100000,-0.100000)"
fill="#000000" stroke="none">
<path d="M100 2424 c-19 -8 -48 -33 -64 -55 l-28 -41 0 -796 c0 -522 4 -806
10 -822 18 -42 56 -77 97 -89 29 -9 179 -11 530 -9 l490 3 33 23 c103 74 80
243 -39 280 -21 6 -167 10 -384 10 -192 0 -366 1 -385 1 l-35 1 0 218 0 217
290 0 c271 0 292 2 324 20 88 52 111 161 50 239 -43 55 -56 57 -372 59 l-292
2 0 205 c-1 113 1 211 3 218 3 10 87 12 397 11 331 -1 396 1 421 14 116 60
117 228 1 286 -36 18 -67 19 -525 19 -404 0 -493 -2 -522 -14z"/>
<path d="M2190 2410 c-179 -37 -310 -108 -454 -248 -110 -107 -185 -233 -232
-389 -23 -77 -27 -107 -28 -233 -1 -160 3 -192 35 -295 72 -234 248 -437 474
-546 136 -66 216 -82 395 -82 184 0 263 17 405 88 93 46 215 137 236 177 47
87 17 185 -69 226 -61 29 -134 15 -189 -37 -39 -37 -127 -88 -193 -112 -56
-20 -83 -24 -195 -23 -117 0 -137 3 -198 27 -166 65 -301 203 -358 367 -18 51
-24 90 -25 177 -4 181 43 300 166 424 128 129 258 183 435 180 114 -2 228 -42
338 -117 41 -28 58 -34 102 -34 93 0 159 67 158 161 0 63 -33 106 -124 165
-195 127 -444 172 -679 124z"/>
</g>
</svg>
